<svg width="1207" height="1207" viewBox="0 0 1207 1207" fill="none" xmlns="http://www.w3.org/2000/svg">
<circle cx="603.5" cy="603.5" r="603.5" fill="url(#paint0_linear_401_4)"/>
<g filter="url(#filter0_d_401_4)">
<mask id="path-2-outside-1_401_4" maskUnits="userSpaceOnUse" x="341" y="431" width="536" height="352" fill="black">
<rect fill="white" x="341" y="431" width="536" height="352"/>
<path d="M448.447 724H536.447V782H409.447C387.447 761.333 370.781 735.167 359.447 703.5C348.114 671.833 342.447 639.333 342.447 606C342.447 572.333 348.781 540 361.447 509C374.114 478 392.947 452.333 417.947 432H536.447V492H448.447C439.447 502.333 431.614 519 424.947 542C418.614 565 415.447 587 415.447 608C415.447 629 418.614 651 424.947 674C431.614 697 439.447 713.667 448.447 724ZM693.127 782V432H875.627V492H761.627V579.5H860.627V637.5H761.627V782H693.127Z"/>
</mask>
<path d="M448.447 724H536.447V782H409.447C387.447 761.333 370.781 735.167 359.447 703.5C348.114 671.833 342.447 639.333 342.447 606C342.447 572.333 348.781 540 361.447 509C374.114 478 392.947 452.333 417.947 432H536.447V492H448.447C439.447 502.333 431.614 519 424.947 542C418.614 565 415.447 587 415.447 608C415.447 629 418.614 651 424.947 674C431.614 697 439.447 713.667 448.447 724ZM693.127 782V432H875.627V492H761.627V579.5H860.627V637.5H761.627V782H693.127Z" fill="white"/>
<path d="M448.447 724L447.693 724.657L447.992 725H448.447V724ZM536.447 724H537.447V723H536.447V724ZM536.447 782V783H537.447V782H536.447ZM409.447 782L408.763 782.729L409.051 783H409.447V782ZM359.447 703.5L360.389 703.163L359.447 703.5ZM361.447 509L362.373 509.378L362.373 509.378L361.447 509ZM417.947 432V431H417.592L417.316 431.224L417.947 432ZM536.447 432H537.447V431H536.447V432ZM536.447 492V493H537.447V492H536.447ZM448.447 492V491H447.992L447.693 491.343L448.447 492ZM424.947 542L423.987 541.722L423.983 541.735L424.947 542ZM424.947 674L423.983 674.266L423.987 674.278L424.947 674ZM448.447 725H536.447V723H448.447V725ZM535.447 724V782H537.447V724H535.447ZM536.447 781H409.447V783H536.447V781ZM410.132 781.271C388.26 760.725 371.675 734.698 360.389 703.163L358.506 703.837C369.886 735.635 386.634 761.942 408.763 782.729L410.132 781.271ZM360.389 703.163C349.094 671.604 343.447 639.217 343.447 606H341.447C341.447 639.449 347.134 672.063 358.506 703.837L360.389 703.163ZM343.447 606C343.447 572.462 349.756 540.258 362.373 509.378L360.522 508.622C347.806 539.742 341.447 572.204 341.447 606H343.447ZM362.373 509.378C374.979 478.527 393.713 452.999 418.578 432.776L417.316 431.224C392.181 451.667 373.249 477.473 360.522 508.622L362.373 509.378ZM417.947 433H536.447V431H417.947V433ZM535.447 432V492H537.447V432H535.447ZM536.447 491H448.447V493H536.447V491ZM447.693 491.343C438.551 501.839 430.668 518.671 423.987 541.722L425.908 542.278C432.56 519.329 440.343 502.827 449.201 492.657L447.693 491.343ZM423.983 541.735C417.629 564.809 414.447 586.899 414.447 608H416.447C416.447 587.101 419.599 565.191 425.911 542.265L423.983 541.735ZM414.447 608C414.447 629.101 417.629 651.191 423.983 674.265L425.911 673.735C419.599 650.809 416.447 628.899 416.447 608H414.447ZM423.987 674.278C430.668 697.329 438.551 714.16 447.693 724.657L449.201 723.343C440.343 713.173 432.56 696.671 425.908 673.722L423.987 674.278ZM693.127 782H692.127V783H693.127V782ZM693.127 432V431H692.127V432H693.127ZM875.627 432H876.627V431H875.627V432ZM875.627 492V493H876.627V492H875.627ZM761.627 492V491H760.627V492H761.627ZM761.627 579.5H760.627V580.5H761.627V579.5ZM860.627 579.5H861.627V578.5H860.627V579.5ZM860.627 637.5V638.5H861.627V637.5H860.627ZM761.627 637.5V636.5H760.627V637.5H761.627ZM761.627 782V783H762.627V782H761.627ZM694.127 782V432H692.127V782H694.127ZM693.127 433H875.627V431H693.127V433ZM874.627 432V492H876.627V432H874.627ZM875.627 491H761.627V493H875.627V491ZM760.627 492V579.5H762.627V492H760.627ZM761.627 580.5H860.627V578.5H761.627V580.5ZM859.627 579.5V637.5H861.627V579.5H859.627ZM860.627 636.5H761.627V638.5H860.627V636.5ZM760.627 637.5V782H762.627V637.5H760.627ZM761.627 781H693.127V783H761.627V781Z" fill="black" mask="url(#path-2-outside-1_401_4)"/>
</g>
<defs>
<filter id="filter0_d_401_4" x="338.447" y="432" width="541.18" height="358" filterUnits="userSpaceOnUse" color-interpolation-filters="sRGB">
<feFlood flood-opacity="0" result="BackgroundImageFix"/>
<feColorMatrix in="SourceAlpha" type="matrix" values="0 0 0 0 0 0 0 0 0 0 0 0 0 0 0 0 0 0 127 0" result="hardAlpha"/>
<feOffset dy="4"/>
<feGaussianBlur stdDeviation="2"/>
<feComposite in2="hardAlpha" operator="out"/>
<feColorMatrix type="matrix" values="0 0 0 0 0 0 0 0 0 0 0 0 0 0 0 0 0 0 0.25 0"/>
<feBlend mode="normal" in2="BackgroundImageFix" result="effect1_dropShadow_401_4"/>
<feBlend mode="normal" in="SourceGraphic" in2="effect1_dropShadow_401_4" result="shape"/>
</filter>
<linearGradient id="paint0_linear_401_4" x1="766.421" y1="8.72234e-06" x2="440.579" y2="1207" gradientUnits="userSpaceOnUse">
<stop stop-color="#E16B01"/>
<stop offset="0.363833" stop-color="#675961"/>
<stop offset="1" stop-color="#244F96"/>
</linearGradient>
</defs>
</svg>
